<?xml version="1.0" encoding="UTF-8"?>
<svg   
  xmlns="http://www.w3.org/2000/svg"
  width="24"
  height="24"
  viewBox="0 0 24 24">
  <defs>
    <style>
      .st0 {
        fill: #fff;
      }
    </style>
  </defs>
  <polygon class="st0" points="13.38 23.97 11.08 23.97 9.16 23.72 5.25 11.77 5.24 7.68 13.43 7.68 13.38 23.97"/>
  <path d="M23.98,11.87c0,.12,0,.25,0,.37-.07,5.06-3.42,9.64-8.22,11.22-.76.25-1.58.44-2.38.51v-14.83c0-.3-.24-.81-.45-1.03-.14-.15-.59-.46-.78-.46h-6.9v4.12h3.91v11.94C4.53,22.63.94,18.72.18,14.03-1.14,5.97,5.71-1.05,13.81.16c5.75.86,10.1,5.89,10.18,11.7ZM10.82,2.06c-.87.09-1.66.78-1.91,1.6-.61,1.96,1.44,3.72,3.28,2.76,2.24-1.17,1.26-4.63-1.37-4.36Z"/>
  <path class="st0" d="M10.82,2.06c2.62-.27,3.61,3.2,1.37,4.36-1.83.96-3.88-.8-3.28-2.76.25-.82,1.04-1.52,1.91-1.6Z"/>
</svg>