<?xml  version="1.0" encoding="UTF-8"?>
<svg id="Layer_1" xmlns="http://www.w3.org/2000/svg" version="1.1" viewBox="0 0 272.9 264.4">
  <path fill="currentColor" d="M264.2,131.9c0-6.3,0-12.6-.4-18.9-3.6-29.3-19.7-58.3-42-77.4-1-.9-2-1.7-3-2.6C196.8,14.4,169.1,3.4,140.2,3.6c-2.5,0-4.9,0-7.4,0-35.6,0-70.1,15.2-93.5,42.3-.9,1-1.7,2-2.6,3C18.2,71,7.2,98.7,7.2,127.6c0,2.5,0,4.9,0,7.4-.3,27,8.1,52.9,24.5,74.4q1,1.3,2.1,2.6c4.7,6.1,9.4,11.9,15.3,16.8.9.7,1.8,1.4,2.7,2.2,11.6,9.3,23.3,17.2,37.3,22.5.7.3,1.4.5,2.1.8,6.2,2.4,17,4.1,15.6,3.7q-1-1-1.1-3.1c0-.9,0-1.9,0-2.8,0-1.1,0-2.1,0-3.2q0-1.8,0-3.6c0-1.2,0-2.5,0-3.8,0-3.4,0-6.8,0-10.2,0-3.6,0-7.1,0-10.7,0-6.7,0-13.5,0-20.2,0-7.7,0-15.3,0-23,0-15.8,0-31.6,0-47.4h-42v-45q18.1-.2,25.9-.3c5.3,0,10.6,0,15.8-.2,4.3,0,8.5-.1,12.8-.1,1.6,0,3.2,0,4.9,0q15.3-.3,22.1,5.1c4,4,5.5,8,5.7,13.5,0,1.2,0,2.4,0,3.6,0,.7,0,1.3,0,2,0,2.2,0,4.4,0,6.6,0,1.6,0,3.2,0,4.7,0,4.3,0,8.6,0,12.8,0,4.5,0,8.9,0,13.4,0,8.5,0,16.9,0,25.4,0,9.6,0,19.3,0,28.9,0,19.8,0,39.7,0,59.5-.6,0,10.5.2,18.6-2.2.8-.3,1.6-.5,2.4-.8,14.7-4.4,28.1-10.6,40.4-19.9.9-.7,1.8-1.4,2.6-2.1,5.9-4.6,11.5-9.1,16.3-14.9.6-.7,1.2-1.4,1.7-2.1,11.2-12.8,19.3-26.6,25.1-42.6.3-.8.6-1.6.9-2.4,4.6-12.7,5.4-25.1,5.4-38.5,0-.9,0-1.8,0-2.6ZM142.4,69.4c-6.3,5.2-11.5,6.1-19.7,5.9-6.5-.7-10.4-3.4-14.8-8.2-5.8-7.3-7-12.8-6.2-22.1,1.2-7,5.5-11.7,11-16,6.8-4.1,14.9-4.5,22.5-2.2,2,.9,3.7,2,5.5,3.2.9.6,1.8,1.1,2.7,1.7,5.5,5.5,7.6,10.6,7.9,18.4-.4,8.8-2.6,13.3-8.9,19.3Z"/>
</svg>