<?xml version="1.0" encoding="UTF-8"?>
<svg id="Layer_1" xmlns="http://www.w3.org/2000/svg" version="1.1"  viewBox="0 0 241 194">
  <defs>
    <style>
      .st0, .st1 {
        fill: #cabba1;
      }

      .st1, .st2 {
        display: none;
      }

      .st3 {
        display: nmo
        fill: black;
      }

      .st2 {
        fill: black;
      }
    </style>
  </defs>
  <path class="st1" d="M96.1,193.9c-35,0-63.5-15.7-80.2-44.1C1.2,124.9,0,97.9,0,67.8S5.4,34.3,15.5,22.7C24.9,12.1,38.1,5.2,52.8,3.4,70.3,1.1,92,1,114.5,1c36.7,0,47.1.4,61.5,1.9,19.2,1.9,35.4,9.1,46.7,20.7,11.5,11.8,17.6,27.7,17.6,45.8v3.6c0,30.9-20.6,56.7-49.4,63.8-2.1,5.1-4.8,10.1-8,15.1h0c-10.1,15.8-34,42.1-79.6,42.1h-7.3,0Z"/>
  <path class="st0" d="M174.6,18c-13.6-1.4-23.2-1.8-60-1.8s-43.7.2-59.8,2.3c-21.4,2.7-39.6,19.1-39.6,49.3s1.6,53.7,13.9,74.3c13.9,23.6,37.1,36.6,67.1,36.6h7.3c36.8,0,56.8-19.6,66.8-35,4.3-6.8,7.5-13.6,9.5-20.5,26.1-2.3,45.5-23.9,45.5-50.2v-3.6c0-28.4-18.6-48.2-50.7-51.4h0Z"/>
  <g>
    <path class="st2" d="M172.1,34.8c-13-1.1-20.7-1.6-57.5-1.6s-42.5.2-55.9,2.3c-18.9,2.7-26.4,13.4-26.4,32.5h0c0,29.3,1.8,48.2,11.4,65.7,10.9,20.2,30.7,28,53.2,28h7c29.6,0,43.9-14.3,51.8-26.8,3.9-6.4,7.3-13.4,9.1-22.3l1.4-5.7h8.2c18.2,0,33.9-14.8,33.9-33.6v-3.4c0-21.1-13.2-32.3-36.2-35ZM130.9,116.4c-6.1,6.1-16.1,12.5-23,16.6-1.8,1.1-4.1,1.8-6.8,1.8s-4.3-.7-6.4-1.8c-6.8-4.1-16.8-10.5-23.2-16.6-9.5-9.1-17-20.7-17-34.1h0c0-14.6,10.5-27.5,26.4-27.5s15.9,4.8,20.2,11.4c4.8-6.6,11.1-11.4,20.5-11.4,15.7,0,26.6,13,26.6,27.5s-7.5,25-17.3,34.1ZM171.8,88.5c-3.6,0-5.7-2-5.7-4.8v-25.7c0-2.7,2-4.8,5.7-4.8,11.6,0,18,6.8,18,17.7s-6.4,17.5-18,17.5Z"/>
    <path class="st3" d="M171.8,53.2c-3.6,0-5.7,2-5.7,4.8v25.7c0,2.7,2,4.8,5.7,4.8,11.6,0,18-6.6,18-17.5s-6.4-17.7-18-17.7Z"/>
    <path class="st3" d="M121.6,54.8c-9.3,0-15.7,4.8-20.5,11.4-4.3-6.6-10.9-11.4-20.2-11.4-15.9,0-26.4,13-26.4,27.5h0c0,13.4,7.5,25,17,34.1,6.4,6.1,16.4,12.5,23.2,16.6,2,1.1,4.1,1.8,6.4,1.8s5-.7,6.8-1.8c6.8-4.1,16.8-10.5,23-16.6,9.8-9.1,17.3-20.7,17.3-34.1s-10.9-27.5-26.6-27.5Z"/>
    <path class="st3" d="M174.6,18c-13.6-1.4-23.2-1.8-60-1.8s-43.6.2-59.8,2.3c-21.4,2.7-39.6,19.1-39.6,49.3h0c0,30.7,1.6,53.7,13.9,74.3,13.9,23.6,37.1,36.6,67.1,36.6h7.3c36.8,0,56.8-19.6,66.8-35,4.3-6.8,7.5-13.6,9.5-20.5,26.1-2.3,45.5-23.9,45.5-50.2v-3.6c0-28.4-18.6-48.2-50.7-51.4ZM208.2,73.2c0,18.9-15.7,33.6-33.9,33.6h-8.2l-1.4,5.7c-1.8,8.9-5.2,15.9-9.1,22.3-8,12.5-22.3,26.8-51.8,26.8h-7c-22.5,0-42.3-7.7-53.2-28-9.5-17.5-11.4-36.4-11.4-65.7h0c0-19.1,7.5-29.8,26.4-32.5,13.4-2,31.1-2.3,55.9-2.3,36.8,0,44.6.5,57.5,1.6,23,2.7,36.2,13.9,36.2,35v3.4Z"/>
  </g>
</svg>